<svg id="Capa_1" data-name="Capa 1" xmlns="http://www.w3.org/2000/svg" viewBox="0 0 3000 1812">
  <defs>
    <style>
      .cls-1 {
        fill: #e01f27;
      }

      .cls-2 {
        fill: #fff;
      }
    </style>
  </defs>
  <path class="cls-1" d="M2838.452,1039.6c-20.778-55.113-49.25-103.107-84.644-144.88a416.954,416.954,0,0,0-126.2-96.884,350.729,350.729,0,0,0-153.131-34.666H1991.222c-57.713,0-103.112-22.22-137.74-65.772q-50.788-66.661-50.791-154.655c0-60.44,17.7-111.993,52.326-153.765q51.943-64,136.2-64h494.023c52.331,0,94.653,18.668,126.971,55.107,32.318,35.555,52.326,80,59.254,132.435,1.536,20.446,11.54,30.222,28.472,30.222h112.345c19.238,0,29.242-9.776,29.242-30.222,0-55.992-11.54-108.435-33.859-157.319q-34.626-72-87.721-125.328c-36.169-34.66-76.185-63.1-120.813-82.66C2554.5,126.776,2510.641,117,2467.548,117H2001.226c-52.326,0-100.806,11.555-146.209,34.66s-84.644,54.223-119.273,93.331c-33.858,39.109-60.019,85.324-79.257,137.767s-29.241,108.435-29.241,168.874,10,117.326,29.241,170.659c19.238,54.217,45.4,100.438,79.257,139.546,34.629,39.109,73.875,70.216,119.273,93.326s93.883,34.665,146.209,34.665h476.326c59.254,0,108.5,23.105,146.974,70.216,37.71,46.221,56.948,101.327,56.948,165.32,0,64.883-19.238,121.769-56.948,169.769-38.475,47.995-87.72,72.879-146.974,72.879h-499.41c-35.4,0-67.718-8-94.648-24.884h-.771a187.142,187.142,0,0,1-44.633-37.329c-36.169-41.778-56.942-91.552-63.87-149.323,0-20.446-10-31.112-29.242-31.112H1617.242c-19.238,0-29.242,11.555-29.242,33.776,0,10.666.77,22.221,1.541,32.886h24.624l115.427,278.2c33.854,31.107,70.793,56,111.575,73.775a334.7,334.7,0,0,0,110.039,30.217h1.541c9.233,1.779,19.237,1.779,28.471,1.779h493.258c53.862,0,105.422-11.555,153.131-36.44,48.48-24,90.032-56,126.2-95.994,35.394-40.888,63.866-88.883,84.644-143.99C2860,1344.469,2870,1284.03,2870,1220.031,2870,1155.149,2860,1095.594,2838.452,1039.6Z"/>
  <path class="cls-2" d="M228,175.443q0-24.162,13.5-40.814Q254.971,118.023,276.6,118h831.665a328.361,328.361,0,0,1,144.447,33.259A395.228,395.228,0,0,1,1372.9,240.441q51.252,56.011,80.988,133.036A446.748,446.748,0,0,1,1483.6,535.213q0,96.78-39.624,178.365-39.642,81.67-102.463,139.071,81.723,63.5,132.1,158.74,50.381,95.217,50.38,210.1,0,93.654-32.387,176.889-32.388,83.1-87.76,145.106a417.48,417.48,0,0,1-129.627,98.214q-74.235,36.342-157.913,36.3H276.6q-21.591,0-35.1-15.11-13.522-15.11-13.5-39.337ZM435.481,326.585v1142.83h660.827q102.1,0,167.857-74.072,65.82-74.117,65.859-179.929,0-99.777-55.218-176.8Q1219.551,961.5,1117.164,961.5H634.874c-14.394,0-26.08-4.993-35.018-15.11-9.016-10.073-13.466-23.142-13.466-39.294v-90.7c0-16.108,4.45-29.221,13.466-39.294q13.407-15.109,35.018-15.11H1092.9q91.59,0,144.176-65.042,52.529-64.932,52.509-152.661,0-90.723-57.733-154.18-57.751-63.5-143.712-63.522Z"/>
</svg>
