<svg id="Capa_1" data-name="Capa 1" xmlns="http://www.w3.org/2000/svg" xmlns:xlink="http://www.w3.org/1999/xlink" viewBox="0 0 7489 1812">
  <defs>
    <style>
      .cls-1, .cls-3 {
        fill: none;
        stroke: #e6e6e6;
        stroke-miterlimit: 10;
      }

      .cls-2 {
        clip-path: url(#clip-path);
      }

      .cls-3 {
        stroke-width: 8px;
      }

      .cls-4 {
        fill: #e01f27;
      }

      .cls-5 {
        fill: #999;
      }

      .cls-6 {
        fill: #e6e6e6;
      }
    </style>
    <clipPath id="clip-path">
      <polygon class="cls-1" points="453.343 1652.991 7.353 1625.898 77.143 -111.781 7497.353 -111.781 7497.353 1654.057 7140.814 1699.219 7140.814 1360.503 450.461 1337.922 453.343 1652.991"/>
    </clipPath>
  </defs>
  
  <g>
    <g>
      <path class="cls-4" d="M4774.526,1002.109a225.04,225.04,0,0,0-43.419-67.812,212.834,212.834,0,0,0-64.735-45.348,194.382,194.382,0,0,0-78.55-16.225H4339.934c-29.6,0-52.891-10.4-70.654-30.786q-26.052-31.2-26.054-72.387c0-28.29,9.081-52.42,26.841-71.972q26.644-29.957,69.867-29.955h253.412c26.844,0,48.553,8.738,65.131,25.793,16.577,16.642,26.841,37.444,30.394,61.988.788,9.57,5.92,14.146,14.6,14.146H4761.1c9.868,0,15-4.576,15-14.146a162.475,162.475,0,0,0-17.368-73.635,214.556,214.556,0,0,0-45-58.661c-18.553-16.223-39.08-29.536-61.972-38.69-22.895-9.567-45.394-14.143-67.5-14.143h-239.2a175.462,175.462,0,0,0-75,16.223,204.217,204.217,0,0,0-61.181,43.684c-17.368,18.306-30.788,39.937-40.656,64.484a209.482,209.482,0,0,0-15,79.043,215.4,215.4,0,0,0,15,79.878c9.868,25.377,23.288,47.011,40.656,65.316a204.193,204.193,0,0,0,61.181,43.682,175.435,175.435,0,0,0,75,16.226H4589.4c30.4,0,55.655,10.814,75.391,32.865,19.344,21.634,29.212,47.427,29.212,77.38,0,30.369-9.868,56.995-29.212,79.462-19.736,22.464-45,34.112-75.391,34.112H4333.225c-18.159,0-34.736-3.743-48.551-11.648h-.395a94.453,94.453,0,0,1-22.894-17.472c-18.554-19.554-29.21-42.852-32.763-69.892,0-9.57-5.132-14.562-15-14.562H4148.1c-9.868,0-15,5.408-15,15.809,0,4.992.395,10.4.791,15.393h12.631l59.209,130.215a208.816,208.816,0,0,0,57.233,34.531,184.661,184.661,0,0,0,56.445,14.144h.79a86.031,86.031,0,0,0,14.6.832h253.019c27.629,0,54.077-5.408,78.55-17.055a214.067,214.067,0,0,0,64.735-44.932,218.077,218.077,0,0,0,43.419-67.395c11.051-25.794,16.182-54.083,16.182-84.038C4790.708,1056.192,4785.577,1028.316,4774.526,1002.109Z"/>
      <path class="cls-4" d="M4929,666.352q0-16.972,8.731-33.944A129.751,129.751,0,0,1,4959.2,602a125.362,125.362,0,0,1,28.853-22.65q16.1-9.171,32.206-9.181h539.507q16.1,0,32.207,9.181A125.8,125.8,0,0,1,5620.828,602a130.874,130.874,0,0,1,21.471,30.41q8.731,16.972,8.731,33.944v537.52c0,11.295-2.91,22.63-8.731,33.924a130.992,130.992,0,0,1-21.471,30.43,124.585,124.585,0,0,1-28.852,22.63q-16.1,9.2-32.207,9.181H5020.262q-16.1,0-32.206-9.181a124.15,124.15,0,0,1-28.853-22.63,129.868,129.868,0,0,1-21.471-30.43c-5.84-11.294-8.731-22.629-8.731-33.924Zm104.675,536.1h512.679v-534.7H5033.676Z"/>
      <path class="cls-4" d="M6343.113,913.91c-7.009-4.576-15.773-7.072-26.286-7.072H5841.936c-10.514,0-19.862,2.5-26.871,7.072s-11.1,10.817-11.1,18.305V974.65c0,7.488,4.089,14.146,11.1,19.138s16.357,7.9,26.871,7.9h474.891c10.513,0,19.277-2.913,26.286-7.9,7.594-4.992,11.1-11.65,11.1-19.138V932.215C6354.211,924.727,6350.707,918.488,6343.113,913.91Z"/>
      <path class="cls-4" d="M6396.052,596.9V641a29.521,29.521,0,0,1-6.712,19.138,23.469,23.469,0,0,1-17.761,7.488H5803.966V596.9a26.468,26.468,0,0,1,7.5-19.135q7.105-7.488,16.578-7.488h543.535a23.469,23.469,0,0,1,17.761,7.488A29.519,29.519,0,0,1,6396.052,596.9Z"/>
      <path class="cls-4" d="M5908.567,906.838v367.767a24.591,24.591,0,0,1-7.1,17.472c-5.132,5.408-10.659,7.9-16.973,7.9h-56.445c-6.317,0-11.841-2.5-16.578-7.9a23.432,23.432,0,0,1-7.5-17.472V906.838Z"/>
      <path class="cls-4" d="M6330.1,595.62a26.276,26.276,0,0,1,6.707-17.673,21.945,21.945,0,0,1,17.442-7.78h626.74a22.039,22.039,0,0,1,17.462,7.78,26.469,26.469,0,0,1,6.707,17.673v45.259q0,26.905-24.169,26.875h-626.74a21.928,21.928,0,0,1-17.442-7.76c-4.491-5.18-6.707-11.538-6.707-19.115Zm284.517,175.408q0-11.3,7.382-18.4a25.253,25.253,0,0,1,18.117-7.069h53.677c7.15,0,12.971,2.377,17.443,7.069q6.706,7.1,6.726,18.4v503.536q0,11.335-6.726,18.4-6.708,7.069-17.443,7.069h-53.677a25.166,25.166,0,0,1-18.117-7.069q-7.4-7.069-7.382-18.4Z"/>
    </g>
    <g>
      <path class="cls-5" d="M521.768,595.7q0-11.3,7.382-18.384a23.548,23.548,0,0,1,16.768-7.069h56.376q9.366,0,16.768,7.069,7.371,7.1,7.381,18.384V1274.62q0,9.933-7.381,17.713-7.4,7.74-16.768,7.76H545.918c-6.264,0-11.872-2.6-16.768-7.76a25.007,25.007,0,0,1-7.382-17.713Z"/>
      <path class="cls-5" d="M842.482,1089.359q14.772,0,14.763,14.138,5.349,41.014,32.881,70,27.494,29.008,71.814,29.008h256.319q45.621,0,75.168-33.964,29.489-33.945,29.527-79.183,0-45.279-29.527-77.8-29.547-32.512-75.168-32.523H974.005a175.626,175.626,0,0,1-75.148-16.271A199.161,199.161,0,0,1,837.8,918.907q-26.193-27.576-40.937-65.065A215.817,215.817,0,0,1,782.1,773.928q0-42.446,14.764-79.2a199.6,199.6,0,0,1,102-108.211,175.937,175.937,0,0,1,75.148-16.271h238.9q33.537,0,67.766,14.138a214.183,214.183,0,0,1,61.734,38.9,203.6,203.6,0,0,1,44.965,58.706,158.726,158.726,0,0,1,17.443,73.556q0,14.139-14.764,14.139H1332.34q-13.443,0-14.764-14.139-5.376-36.777-30.2-62.241t-65.087-25.473H968.647q-42.962,0-69.79,29.719Q872,727.258,872.009,769.683q0,41.043,26.231,72.133,26.251,31.141,70.638,31.121h247.55a193.69,193.69,0,0,1,78.695,16.271,198.84,198.84,0,0,1,64.586,45.259,220.3,220.3,0,0,1,43.712,67.889q16.161,38.94,16.152,84.159,0,45.279-16.152,84.139-16.131,38.941-43.693,67.2a212.7,212.7,0,0,1-64.567,45.259,186,186,0,0,1-78.655,16.982H963.693q-36.341,0-71.967-14.869a222.627,222.627,0,0,1-64.548-40.993,210.413,210.413,0,0,1-47.047-62.242,168.867,168.867,0,0,1-18.175-77.11q0-15.54,14.764-15.52Z"/>
      <path class="cls-5" d="M1567.189,597.118q0-11.306,6.727-19.1a22.022,22.022,0,0,1,17.481-7.78h414.248a172.344,172.344,0,0,1,71.948,15.56,196.493,196.493,0,0,1,59.864,41.724q25.529,26.2,40.34,62.242a197.813,197.813,0,0,1,14.8,75.668q0,45.279-19.736,83.449a214.166,214.166,0,0,1-51.037,65.064,231.381,231.381,0,0,1,65.8,74.267q25.094,44.548,25.094,98.3a214.088,214.088,0,0,1-16.132,82.758,219.932,219.932,0,0,1-43.713,67.888,207.19,207.19,0,0,1-64.566,45.95,186,186,0,0,1-78.656,16.982H1591.4q-10.755,0-17.481-7.069t-6.727-18.4Zm103.345,70.712v534.676h329.155q50.855,0,83.609-34.655,32.786-34.676,32.8-84.18,0-46.68-27.5-82.717-27.524-36.078-78.521-36.077H1769.851c-7.169,0-12.99-2.336-17.442-7.069-4.491-4.713-6.707-10.828-6.707-18.384V896.988c0-7.536,2.216-13.671,6.707-18.383q6.678-7.069,17.442-7.07h228.142q45.621,0,71.814-30.429,26.163-30.38,26.154-71.423,0-42.446-28.756-72.134-28.766-29.709-71.582-29.719Z"/>
      <path class="cls-5" d="M2890.618,896.91v44.1c0,7.488-4.036,13.313-10.953,18.3a46.335,46.335,0,0,1-24.785,7.072H2363.189c-10.375,0-19.02-2.5-25.363-7.072-6.917-4.992-9.8-10.817-9.8-18.3v-44.1c0-7.488,2.881-13.73,9.8-18.3,6.343-4.576,14.988-7.072,25.363-7.072H2854.88a46.335,46.335,0,0,1,24.785,7.072C2886.582,883.18,2890.618,889.422,2890.618,896.91Z"/>
      <path class="cls-5" d="M2328.028,667.624V596.9a26.468,26.468,0,0,1,7.5-19.135q7.1-7.488,16.577-7.488h549.06a24.964,24.964,0,0,1,18.158,7.488,27.856,27.856,0,0,1,7.105,19.135v45.348c0,6.656-2.368,12.48-7.105,17.889a24.964,24.964,0,0,1-18.158,7.488Z"/>
      <path class="cls-5" d="M2931.955,1229.257v45.348a23.432,23.432,0,0,1-7.5,17.472c-4.737,5.408-10.263,7.9-16.578,7.9H2352.105c-6.317,0-11.841-2.5-16.577-7.9a23.432,23.432,0,0,1-7.5-17.472v-71.974h579.849q9.473,0,16.578,7.49A26.465,26.465,0,0,1,2931.955,1229.257Z"/>
      <path class="cls-5" d="M3015.275,595.7a25.186,25.186,0,0,1,7.266-17.673,23.645,23.645,0,0,1,17.924-7.78h54.294a23.634,23.634,0,0,1,17.905,7.78,25.208,25.208,0,0,1,7.286,17.673v606.81h446.917a24.11,24.11,0,0,1,18.117,7.76,26.875,26.875,0,0,1,7.382,19.1V1273.2a26.834,26.834,0,0,1-7.382,19.135,24.11,24.11,0,0,1-18.117,7.76h-526.4a23.7,23.7,0,0,1-17.924-7.76,26.9,26.9,0,0,1-7.266-19.135Z"/>
      <path class="cls-5" d="M4324.935,1277.517l-40.261-86.534h-.395l-277.1-593.667a47.7,47.7,0,0,0-15.395-19.136c-6.709-5.408-13.814-7.9-20.919-7.9h-63.157c-7.1,0-14.209,2.5-20.919,7.9a47.73,47.73,0,0,0-15.395,19.136l-286.57,612.805-31.577,67.4q-2.367,8.113-2.368,9.984c0,8.321,4.341,12.48,13.421,12.48h67.1c7.105,0,12.237-3.745,15.79-11.233l292.885-633.6L4103.5,1027.07H3866.266c-9.869,0-16.578,4.575-20.132,14.146l-29.6,62.4a16.809,16.809,0,0,0-1.578,7.072c0,6.655,3.158,9.568,9.473,9.568h322.1l59.209,130.215,17.365,38.274c3.554,7.488,9.08,11.233,16.185,11.233h75c1.973,0,3.551,0,5.129-.832h.79c5.132-1.664,7.5-5.409,7.5-11.648C4327.7,1286.252,4326.908,1282.926,4324.935,1277.517Z"/>
    </g>
  </g>
  
</svg>
